<mxfile host="Electron" modified="2024-09-02T03:36:39.432Z" agent="Mozilla/5.0 (X11; Linux x86_64) AppleWebKit/537.36 (KHTML, like Gecko) draw.io/24.4.0 Chrome/120.0.6099.109 Electron/28.1.0 Safari/537.36" etag="fedHHFTbaEmmOBYNx7Ym" version="24.4.0" type="device">
  <diagram id="C5RBs43oDa-KdzZeNtuy" name="Page-1">
    <mxGraphModel dx="670" dy="335" grid="1" gridSize="10" guides="1" tooltips="1" connect="1" arrows="1" fold="1" page="1" pageScale="1" pageWidth="827" pageHeight="1169" math="0" shadow="0">
      <root>
        <mxCell id="WIyWlLk6GJQsqaUBKTNV-0" />
        <mxCell id="WIyWlLk6GJQsqaUBKTNV-1" parent="WIyWlLk6GJQsqaUBKTNV-0" />
        <mxCell id="gxnaOyG4suK2D6459AMA-0" value="Clima" style="swimlane;fontStyle=1;align=center;verticalAlign=top;childLayout=stackLayout;horizontal=1;startSize=26;horizontalStack=0;resizeParent=1;resizeParentMax=0;resizeLast=0;collapsible=1;marginBottom=0;whiteSpace=wrap;html=1;" vertex="1" parent="WIyWlLk6GJQsqaUBKTNV-1">
          <mxGeometry x="330" y="350" width="200" height="264" as="geometry" />
        </mxCell>
        <mxCell id="gxnaOyG4suK2D6459AMA-1" value="- ciudad: String&lt;div&gt;- provincia: String&lt;/div&gt;&lt;div&gt;- pais: String&lt;br&gt;&lt;/div&gt;&lt;div&gt;- temperaturaActual: double&lt;br&gt;&lt;/div&gt;&lt;div&gt;- temperaturaMinima: double&lt;/div&gt;&lt;div&gt;- temperaturaMaxima: double&lt;br&gt;&lt;/div&gt;&lt;div&gt;- escala: char&lt;br&gt;&lt;/div&gt;&lt;div&gt;- presion: double&lt;br&gt;&lt;/div&gt;&lt;div&gt;- viento: double&lt;br&gt;&lt;/div&gt;&lt;div&gt;- direccionViento: String&lt;br&gt;&lt;/div&gt;&lt;div&gt;- humedad: double&lt;br&gt;&lt;/div&gt;&lt;div&gt;- visibilidad: double&lt;br&gt;&lt;/div&gt;&lt;div&gt;- ultimaActualizacion: Date&lt;br&gt;&lt;/div&gt;" style="text;strokeColor=none;fillColor=none;align=left;verticalAlign=top;spacingLeft=4;spacingRight=4;overflow=hidden;rotatable=0;points=[[0,0.5],[1,0.5]];portConstraint=eastwest;whiteSpace=wrap;html=1;" vertex="1" parent="gxnaOyG4suK2D6459AMA-0">
          <mxGeometry y="26" width="200" height="204" as="geometry" />
        </mxCell>
        <mxCell id="gxnaOyG4suK2D6459AMA-2" value="" style="line;strokeWidth=1;fillColor=none;align=left;verticalAlign=middle;spacingTop=-1;spacingLeft=3;spacingRight=3;rotatable=0;labelPosition=right;points=[];portConstraint=eastwest;strokeColor=inherit;" vertex="1" parent="gxnaOyG4suK2D6459AMA-0">
          <mxGeometry y="230" width="200" height="8" as="geometry" />
        </mxCell>
        <mxCell id="gxnaOyG4suK2D6459AMA-3" value="+ method(type): type" style="text;strokeColor=none;fillColor=none;align=left;verticalAlign=top;spacingLeft=4;spacingRight=4;overflow=hidden;rotatable=0;points=[[0,0.5],[1,0.5]];portConstraint=eastwest;whiteSpace=wrap;html=1;" vertex="1" parent="gxnaOyG4suK2D6459AMA-0">
          <mxGeometry y="238" width="200" height="26" as="geometry" />
        </mxCell>
      </root>
    </mxGraphModel>
  </diagram>
</mxfile>
